<svg width="70" height="70" viewBox="0 0 70 70" fill="none" xmlns="http://www.w3.org/2000/svg">
<g clip-path="url(#clip0_438_62)">
<path d="M42.3875 34.3289C38.7351 32.3502 33.2365 28.6005 25.0231 22.0806C24.5382 21.6957 23.8211 22.0587 23.8438 22.6774C24.1528 31.1176 23.7539 33.2404 18.0266 41.3052C10.9289 50.4624 2.74319 56.2364 -8.18145 62.6798C-8.64429 62.9528 -8.65985 63.618 -8.20896 63.9103L23.0216 84.1559C23.2172 84.2827 23.4619 84.3072 23.6787 84.2218L63.4848 68.5407C63.7271 68.4453 63.8984 68.2301 63.9359 67.9724C64.9855 60.7683 67.7427 49.0253 56.3319 41.8154C53.4731 39.8082 46.2209 36.4057 42.3875 34.3289Z" fill="white" stroke="#715739" stroke-width="0.72165" stroke-linecap="round"/>
<path d="M30.4453 51.4792L33.6107 53.2056" stroke="#51372B" stroke-width="1.2" stroke-linecap="round"/>
<path d="M31.0312 55.1394L33.4165 53.5492" stroke="#51372B" stroke-width="1.2" stroke-linecap="round"/>
<path d="M43.5195 51.958L41.1343 53.5482" stroke="#51372B" stroke-width="1.2" stroke-linecap="round"/>
<path d="M43.5195 55.1396L41.1343 53.5495" stroke="#51372B" stroke-width="1.2" stroke-linecap="round"/>
<path d="M24.5317 24.536C24.5052 23.3284 24.5227 22.3801 24.8922 22.3711C35.2502 30.3986 41.819 35.0334 45.0982 36.4433C53.9809 40.823 58.5657 43.5418 60.6139 45.8247C63.8445 50.2249 64.2041 51.316 64.5829 53.0412C62.9796 55.7066 60.8578 58.4888 58.4487 60.2577C61.3575 56.0027 50.4911 42.9863 24.5317 24.536Z" fill="#FFE7D1"/>
<path d="M42.7859 34.8132C39.1335 32.8345 33.6349 29.0849 25.4216 22.565C24.9366 22.1801 24.2196 22.5431 24.2422 23.1618C24.5512 31.6019 24.1524 33.7248 18.4251 41.7895C11.3274 50.9468 3.14162 56.7208 -7.78301 63.1642C-8.24585 63.4372 -8.26141 64.1024 -7.81052 64.3947L23.4201 84.6403C23.6156 84.7671 23.8603 84.7916 24.0771 84.7062L63.8832 69.0251C64.1255 68.9297 64.2968 68.7145 64.3344 68.4568C65.384 61.2526 68.1412 49.5096 56.7303 42.2997C53.8716 40.2925 46.6194 36.89 42.7859 34.8132Z" stroke="#715739" stroke-width="1.5" stroke-linecap="round"/>
<path d="M29.4417 56.5525C30.1142 56.9643 30.069 57.9684 29.3524 58.2974C29.1328 58.3983 28.8813 58.4142 28.6502 58.3434C27.7616 58.0714 27.688 56.8292 28.5484 56.478C28.8395 56.3592 29.1736 56.3883 29.4417 56.5525Z" fill="#FFBEBE"/>
<path d="M45.3128 56.5525C45.9853 56.9643 45.9401 57.9684 45.2235 58.2974C45.0038 58.3983 44.7524 58.4142 44.5213 58.3434C43.6327 58.0714 43.5591 56.8292 44.4195 56.478C44.7106 56.3592 45.0446 56.3883 45.3128 56.5525Z" fill="#FFBEBE"/>
<path d="M33.1953 58.4541C34.7712 59.0774 35.6429 59.1404 37.1644 58.4541C38.8787 59.0194 39.9638 59.0251 40.7726 58.4541" stroke="#51372B" stroke-width="1.2" stroke-linecap="round"/>
</g>
<rect x="0.75" y="0.75" width="68.5" height="68.5" rx="34.25" stroke="#715739" stroke-width="1.5"/>
<defs>
<clipPath id="clip0_438_62">
<rect width="70" height="70" rx="35" fill="white"/>
</clipPath>
</defs>
</svg>
