<svg width="268" height="64" viewBox="0 0 268 64" fill="none" xmlns="http://www.w3.org/2000/svg">
<rect x="11" y="10.5" width="246" height="43" rx="9.5" fill="#FFFBF2"/>
<rect x="11" y="10.5" width="246" height="43" rx="9.5" stroke="#51372B"/>
<path d="M45.06 32.25C45.06 31.47 44.99 30.72 44.86 30H34.5V34.26H40.42C40.16 35.63 39.38 36.79 38.21 37.57V40.34H41.78C43.86 38.42 45.06 35.6 45.06 32.25Z" fill="#4285F4"/>
<path d="M34.4999 43.0001C37.4699 43.0001 39.9599 42.0201 41.7799 40.3401L38.2099 37.5701C37.2299 38.2301 35.9799 38.6301 34.4999 38.6301C31.6399 38.6301 29.2099 36.7001 28.3399 34.1001H24.6799V36.9401C26.4899 40.5301 30.1999 43.0001 34.4999 43.0001Z" fill="#34A853"/>
<path d="M28.34 34.0898C28.12 33.4298 27.99 32.7298 27.99 31.9998C27.99 31.2698 28.12 30.5698 28.34 29.9098V27.0698H24.68C23.93 28.5498 23.5 30.2198 23.5 31.9998C23.5 33.7798 23.93 35.4498 24.68 36.9298L27.53 34.7098L28.34 34.0898Z" fill="#FBBC05"/>
<path d="M34.4999 25.38C36.1199 25.38 37.5599 25.94 38.7099 27.02L41.8599 23.87C39.9499 22.09 37.4699 21 34.4999 21C30.1999 21 26.4899 23.47 24.6799 27.07L28.3399 29.91C29.2099 27.31 31.6399 25.38 34.4999 25.38Z" fill="#EA4335"/>
<path d="M95.8645 30.1641C95.5012 29.0742 94.675 28.3828 93.4621 28.3828C91.9621 28.3828 90.7727 29.5664 90.7668 31.7578C90.7727 33.9434 91.9621 35.127 93.5324 35.1328C94.9621 35.127 95.9523 34.1777 95.9699 32.6719H93.7551V31.7461H97.0012V32.6602C97.0012 34.7637 95.5539 36.1172 93.5324 36.1172C91.2648 36.1172 89.7414 34.4414 89.7473 31.7578C89.7414 29.0742 91.2824 27.3984 93.4621 27.3984C95.2551 27.3984 96.6379 28.5234 96.9543 30.1641H95.8645ZM100.456 36.1289C98.7215 36.1348 97.5496 34.8223 97.5496 32.8477C97.5496 30.8613 98.7215 29.5547 100.456 29.5547C102.184 29.5547 103.345 30.8613 103.339 32.8477C103.345 34.8223 102.184 36.1348 100.456 36.1289ZM98.5574 32.8477C98.5633 34.1191 99.1609 35.2383 100.456 35.2383C101.739 35.2383 102.331 34.1191 102.331 32.8477C102.331 31.582 101.739 30.4453 100.456 30.4453C99.1609 30.4453 98.5633 31.582 98.5574 32.8477ZM106.664 36.1289C104.93 36.1348 103.758 34.8223 103.758 32.8477C103.758 30.8613 104.93 29.5547 106.664 29.5547C108.393 29.5547 109.553 30.8613 109.547 32.8477C109.553 34.8223 108.393 36.1348 106.664 36.1289ZM104.766 32.8477C104.772 34.1191 105.37 35.2383 106.664 35.2383C107.948 35.2383 108.539 34.1191 108.539 32.8477C108.539 31.582 107.948 30.4453 106.664 30.4453C105.37 30.4453 104.772 31.582 104.766 32.8477ZM112.85 38.5195C111.309 38.5195 110.266 37.8457 110.154 36.668H111.209C111.344 37.3184 111.947 37.6406 112.85 37.6406C113.939 37.6406 114.607 37.166 114.607 36.1172V34.8281H114.525C114.309 35.1797 113.904 35.9004 112.674 35.9062C111.127 35.9004 109.967 34.7344 109.967 32.7305C109.967 30.7734 111.086 29.5547 112.686 29.5547C113.922 29.5547 114.32 30.3047 114.549 30.6445H114.631V29.6367H115.615V36.1758C115.609 37.8164 114.402 38.5195 112.85 38.5195ZM110.986 32.7656C110.986 34.084 111.607 35.0039 112.814 35.0039C113.98 35.0039 114.625 34.166 114.631 32.7656C114.625 31.4004 113.998 30.457 112.814 30.457C111.59 30.457 110.986 31.4824 110.986 32.7656ZM117.629 27.5156V36H116.621V27.5156H117.629ZM121.306 36.1289C119.466 36.1348 118.329 34.8223 118.329 32.8711C118.329 30.9141 119.484 29.5547 121.212 29.5547C122.548 29.5547 123.96 30.375 123.954 32.7305V33.1523H119.337C119.39 34.5 120.175 35.2383 121.306 35.2383C122.068 35.2383 122.548 34.9043 122.782 34.5117H123.861C123.562 35.4785 122.618 36.1348 121.306 36.1289ZM119.343 32.2969H122.935C122.929 31.2363 122.261 30.4453 121.212 30.4453C120.111 30.4453 119.413 31.3125 119.343 32.2969ZM135.61 26.5312V36.9492H134.731V26.5312H135.61ZM126.68 34.0312C128.948 32.6895 130.084 30.8086 130.266 28.6289H127.149V27.8672H131.18C131.18 28.4004 131.133 28.9277 131.039 29.4375H132.621V26.8125H133.5V36.4219H132.621V32.8125H130.688V32.0508H132.621V30.1992H130.858C130.354 31.9629 129.211 33.5215 127.243 34.6992L126.68 34.0312ZM145.1 26.5312V32.7422H144.174V30.0117H142.076V29.25H144.174V26.5312H145.1ZM136.51 31.9102C138.057 31.3535 139.158 29.9414 139.158 28.4531V28.0664H136.803V27.293H142.416V28.0664H140.084V28.4414C140.084 29.8008 141.127 31.0957 142.65 31.6172L142.17 32.3555C141.004 31.9336 140.096 31.0547 139.645 29.9824C139.199 31.2012 138.232 32.1738 136.99 32.6484L136.51 31.9102ZM138.15 35.0039C138.145 33.7793 139.475 33.0645 141.643 33.0703C143.805 33.0645 145.135 33.7793 145.135 35.0039C145.135 36.2344 143.805 36.9375 141.643 36.9492C139.475 36.9375 138.145 36.2344 138.15 35.0039ZM139.064 35.0039C139.059 35.7598 140.043 36.2168 141.643 36.2109C143.236 36.2168 144.221 35.7598 144.221 35.0039C144.221 34.2422 143.236 33.7852 141.643 33.7852C140.043 33.7852 139.059 34.2422 139.064 35.0039ZM150.98 27.2109C153.154 27.2168 154.789 28.3535 154.789 30.0703C154.789 31.8047 153.154 32.9414 150.98 32.9297C148.806 32.9414 147.171 31.8047 147.171 30.0703C147.171 28.3535 148.806 27.2168 150.98 27.2109ZM146.234 35.5664V34.793H155.773V35.5664H146.234ZM148.05 30.0703C148.039 31.3359 149.298 32.1797 150.98 32.1797C152.65 32.1797 153.898 31.3359 153.898 30.0703C153.898 28.8223 152.65 27.9551 150.98 27.9609C149.298 27.9551 148.039 28.8223 148.05 30.0703ZM165.544 34.8867V35.6602H156.005V34.8867H160.294V32.918H157.2V29.707H163.435V28.0664H157.177V27.3047H164.337V30.457H158.114V32.1562H164.583V32.918H161.196V34.8867H165.544ZM177.106 26.5312V36.9492H176.227V26.5312H177.106ZM168.176 34.0312C170.444 32.6895 171.58 30.8086 171.762 28.6289H168.645V27.8672H172.676C172.676 28.4004 172.629 28.9277 172.536 29.4375H174.118V26.8125H174.996V36.4219H174.118V32.8125H172.184V32.0508H174.118V30.1992H172.354C171.85 31.9629 170.707 33.5215 168.739 34.6992L168.176 34.0312ZM187.486 31.7695V32.5312H177.959V31.7695H182.248V30.1641H183.15V31.7695H187.486ZM178.533 29.9883C180.373 29.7363 182.236 28.5762 182.236 27.1875V26.6953H183.162V27.1875C183.162 28.5762 185.037 29.7363 186.877 29.9883L186.502 30.7266C184.926 30.4512 183.355 29.6133 182.705 28.4121C182.049 29.625 180.484 30.4512 178.885 30.7266L178.533 29.9883ZM179.014 34.2891V33.5508H186.279V36.9492H185.354V34.2891H179.014ZM198.204 26.5312V30.832H199.95V31.5938H198.204V36.9492H197.29V26.5312H198.204ZM190.083 28.9688V28.207H192.767V26.6602H193.681V28.207H196.282V28.9688H190.083ZM190.681 32.2266C190.675 30.8203 191.753 29.8359 193.236 29.8359C194.706 29.8359 195.779 30.8203 195.79 32.2266C195.779 33.6387 194.706 34.6172 193.236 34.6172C191.753 34.6172 190.675 33.6387 190.681 32.2266ZM191.56 32.2266C191.554 33.1758 192.263 33.8438 193.236 33.832C194.196 33.8438 194.9 33.1758 194.911 32.2266C194.9 31.2832 194.196 30.6035 193.236 30.6094C192.263 30.6035 191.554 31.2832 191.56 32.2266ZM208.526 26.5312V36.9492H207.6V26.5312H208.526ZM200.042 34.2422C202.86 32.9062 204.302 30.9082 204.507 28.418H200.522V27.668H205.444C205.432 30.6621 204.038 33.3164 200.546 34.9922L200.042 34.2422Z" fill="#51372B"/>
</svg>
