<svg width="17" height="29" viewBox="0 0 17 29" fill="none" xmlns="http://www.w3.org/2000/svg">
<path fill-rule="evenodd" clip-rule="evenodd" d="M4.22865 6.88335C5.00141 6.11059 6.12199 5.03439 7.32422 4.28886C8.59487 3.5009 9.50474 3.35724 10.1062 3.62629C11.4123 4.2106 12.3687 5.35163 13.012 6.83915C13.6575 8.33175 13.9379 10.0705 13.9379 11.6168C13.9379 11.7841 13.8725 12.0187 13.5995 12.3406C13.3186 12.6716 12.8787 13.0185 12.3007 13.3545C11.1431 14.0274 9.70499 14.5003 8.74159 14.7144C6.72258 15.1631 5.4806 16.3291 4.61808 17.6976C4.04697 18.6038 3.58664 19.714 3.1746 20.7078C3.02471 21.0693 2.88122 21.4154 2.74111 21.7307C2.40465 22.4877 2.74559 23.3742 3.50262 23.7106C4.25965 24.0471 5.14609 23.7061 5.48254 22.9491C5.69928 22.4615 5.88396 22.0154 6.05521 21.6017L6.05522 21.6017C6.42278 20.7139 6.72841 19.9757 7.15605 19.2972C7.69928 18.4353 8.33127 17.8788 9.39238 17.643C10.568 17.3817 12.3153 16.8161 13.8084 15.9481C14.5558 15.5136 15.3075 14.9645 15.887 14.2814C16.4743 13.5893 16.9379 12.6919 16.9379 11.6168C16.9379 9.75129 16.606 7.59182 15.7655 5.64834C14.9228 3.69978 13.5197 1.86686 11.3313 0.887838C9.28798 -0.0262582 7.19864 0.836732 5.74318 1.73929C4.2193 2.68429 2.88687 3.98248 2.10733 4.76202C1.52154 5.34781 1.52154 6.29756 2.10733 6.88335C2.69311 7.46913 3.64286 7.46913 4.22865 6.88335ZM0.878904 25.7055C1.39608 25.1237 2.26445 25.0394 2.88108 25.488L2.91382 25.4988C3.69973 25.7608 4.12447 26.6102 3.8625 27.3962C3.60053 28.1821 2.75105 28.6068 1.96513 28.3448C1.94942 28.3396 1.93377 28.3345 1.91282 28.3278L1.90872 28.3265L1.90822 28.3263C1.88983 28.3204 1.86446 28.3122 1.83912 28.3037C1.78335 28.2851 1.69758 28.2553 1.60069 28.2124C1.37665 28.113 1.18461 27.9842 1.00347 27.8232C0.384298 27.2728 0.328527 26.3247 0.878904 25.7055Z" fill="#562E00"/>
</svg>
